<?xml version="1.0" encoding="UTF-8" standalone="no"?> <!-- Creator: CorelDRAW X7 --> <svg xmlns:dc="http://purl.org/dc/elements/1.1/" xmlns:cc="http://creativecommons.org/ns#" xmlns:rdf="http://www.w3.org/1999/02/22-rdf-syntax-ns#" xmlns:svg="http://www.w3.org/2000/svg" xmlns="http://www.w3.org/2000/svg" xmlns:xlink="http://www.w3.org/1999/xlink" xmlns:sodipodi="http://sodipodi.sourceforge.net/DTD/sodipodi-0.dtd" xmlns:inkscape="http://www.inkscape.org/namespaces/inkscape" xml:space="preserve" width="211.61575mm" height="206.29367mm" style="clip-rule:evenodd;fill-rule:evenodd;image-rendering:optimizeQuality;shape-rendering:geometricPrecision;text-rendering:geometricPrecision" viewBox="0 0 17668.465 17223.295" id="svg2" inkscape:version="0.91 r13725" sodipodi:docname="sun2.svg"><metadata id="metadata70"></metadata><defs id="defs4"><linearGradient inkscape:collect="always" id="linearGradient7814"><stop style="stop-color:#9900ff;stop-opacity:1;" offset="0" id="stop7816"></stop><stop style="stop-color:#b951ff;stop-opacity:1" offset="1" id="stop7818"></stop></linearGradient><linearGradient inkscape:collect="always" id="linearGradient7806"><stop style="stop-color:#ff0000;stop-opacity:1;" offset="0" id="stop7808"></stop><stop style="stop-color:#ff5151;stop-opacity:1" offset="1" id="stop7810"></stop></linearGradient><linearGradient inkscape:collect="always" id="linearGradient7798"><stop style="stop-color:#ff6600;stop-opacity:1;" offset="0" id="stop7800"></stop><stop style="stop-color:#ff9751;stop-opacity:1" offset="1" id="stop7802"></stop></linearGradient><linearGradient inkscape:collect="always" id="linearGradient7790"><stop style="stop-color:#ffee00;stop-opacity:1;" offset="0" id="stop7792"></stop><stop style="stop-color:#fff351;stop-opacity:1" offset="1" id="stop7794"></stop></linearGradient><linearGradient inkscape:collect="always" id="linearGradient7782"><stop style="stop-color:#00ff00;stop-opacity:1;" offset="0" id="stop7784"></stop><stop style="stop-color:#51ff51;stop-opacity:1" offset="1" id="stop7786"></stop></linearGradient><linearGradient inkscape:collect="always" id="linearGradient7774"><stop style="stop-color:#0099ff;stop-opacity:1;" offset="0" id="stop7776"></stop><stop style="stop-color:#51b9ff;stop-opacity:1" offset="1" id="stop7778"></stop></linearGradient><linearGradient inkscape:collect="always" id="linearGradient7644"><stop style="stop-color:#4400ff;stop-opacity:1;" offset="0" id="stop7646"></stop><stop style="stop-color:#8451ff;stop-opacity:1" offset="1" id="stop7648"></stop></linearGradient><style type="text/css" id="style6"> .str0 {stroke:#373435;stroke-width:16.6985} .fil7 {fill:none} .fil5 {fill:#263CCE} .fil3 {fill:#40AA60} .fil4 {fill:#75AADB} .fil6 {fill:#A00EC1} .fil0 {fill:#DF0000} .fil1 {fill:#FFA000} .fil2 {fill:gold} </style><linearGradient inkscape:collect="always" xlink:href="#linearGradient7806" id="linearGradient7822" x1="7908" y1="3636" x2="9339" y2="1240" gradientUnits="userSpaceOnUse"></linearGradient><linearGradient inkscape:collect="always" xlink:href="#linearGradient7814" id="linearGradient7824" x1="8155.0747" y1="1752.4226" x2="10911" y2="1311" gradientUnits="userSpaceOnUse"></linearGradient><linearGradient inkscape:collect="always" xlink:href="#linearGradient7644" id="linearGradient7826" x1="9819" y1="655" x2="11836" y2="2584" gradientUnits="userSpaceOnUse"></linearGradient><linearGradient inkscape:collect="always" xlink:href="#linearGradient7774" id="linearGradient7828" x1="11793.107" y1="1332.4515" x2="11417" y2="4101" gradientUnits="userSpaceOnUse"></linearGradient><linearGradient inkscape:collect="always" xlink:href="#linearGradient7782" id="linearGradient7830" x1="12373.11" y1="3294.0549" x2="9970" y2="4719" gradientUnits="userSpaceOnUse"></linearGradient><linearGradient inkscape:collect="always" xlink:href="#linearGradient7790" id="linearGradient7832" x1="11189.159" y1="4986.3589" x2="8585" y2="3973" gradientUnits="userSpaceOnUse"></linearGradient><linearGradient inkscape:collect="always" xlink:href="#linearGradient7798" id="linearGradient7834" x1="9201.8711" y1="5021.5537" x2="8304" y2="2425" gradientUnits="userSpaceOnUse"></linearGradient></defs><g id="g7717" transform="matrix(3.022834,0,0,3.022834,-21549.784,-0.41348518)"><polygon style="fill:url(#linearGradient7832);fill-opacity:1" id="polygon26" points="10052,5698 9145,5698 8865,4836 8585,3973 9318,3440 10052,2908 10785,3440 11519,3973 11238,4836 10958,5698 " class="fil2"></polygon><polygon style="fill:url(#linearGradient7830);fill-opacity:1" id="polygon28" points="12233,4647 11668,5356 10819,5038 9970,4719 10011,3813 10052,2908 10926,2666 11800,2425 12299,3182 12799,3938 " class="fil3"></polygon><polygon style="fill:url(#linearGradient7828);fill-opacity:1" id="polygon30" points="12772,2286 12974,3170 12196,3635 11417,4101 10734,3504 10052,2908 10408,2074 10764,1240 11667,1321 12570,1403 " class="fil4"></polygon><polygon style="fill:url(#linearGradient7826);fill-opacity:1" id="polygon32" points="11262,393 12079,787 11957,1685 11836,2584 10944,2746 10052,2908 9622,2109 9192,1311 9819,655 10445,0 " class="fil5"></polygon><polygon style="fill:url(#linearGradient7824);fill-opacity:1" id="polygon34" points="8841,394 9657,0 10284,655 10911,1311 10481,2109 10052,2908 9160,2746 8267,2584 8146,1685 8024,787 " class="fil6"></polygon><polygon style="fill:url(#linearGradient7822);fill-opacity:1" id="polygon36" points="8436,1322 9339,1240 9695,2074 10052,2908 8585,3973 7908,3636 7129,3171 7331,2287 7533,1403 " class="fil0"></polygon><polygon style="fill:url(#linearGradient7834);fill-opacity:1" id="polygon38" points="7870,4648 7305,3939 7804,3182 8304,2425 9178,2666 10052,2908 10052,2908 8585,3973 8969,5156 8436,5356 " class="fil1"></polygon><path inkscape:transform-center-y="-868.56389" inkscape:transform-center-x="983.5" sodipodi:nodetypes="cccccc" inkscape:connector-curvature="0" id="polygon64" d="M 9381.6718,1170.8725 10052,2908 9339,1240 8100.7691,1352.0706 8085,1236 Z" style="fill:#000000;fill-opacity:0.39759037;stroke:none"></path><path style="fill:#000000;fill-opacity:0.39759037;stroke:none" d="M 10991.578,1300.4722 10052,2908.0001 l 858.93,-1597.7586 -859.991,-897.88109 80.883,-84.72885 z" id="path7705" inkscape:connector-curvature="0" sodipodi:nodetypes="cccccc" inkscape:transform-center-x="-469.2585" inkscape:transform-center-y="-1290.1843"></path><path inkscape:transform-center-y="-778.16883" inkscape:transform-center-x="-1033.7885" sodipodi:nodetypes="cccccc" inkscape:connector-curvature="0" id="path7707" d="M 11894.701,2640.7848 10052,2908.0001 11836,2584 l 166.271,-1232.2273 117.306,10.3289 z" style="fill:#000000;fill-opacity:0.39759037;stroke:none"></path><path style="fill:#000000;fill-opacity:0.39759037;stroke:none" d="m 11409.914,4182.0453 -1357.871,-1274.0244 1365.665,1192.7251 1067.038,-638.3255 65.067,98.1511 z" id="path7709" inkscape:connector-curvature="0" sodipodi:nodetypes="cccccc" inkscape:transform-center-x="-1248.928" inkscape:transform-center-y="636.97787"></path><path inkscape:transform-center-y="1180.2029" inkscape:transform-center-x="-465.63795" sodipodi:nodetypes="cccccc" inkscape:connector-curvature="0" id="path7711" d="m 9901.3809,4763.9364 150.6731,-1855.8689 -82.222,1811.3182 1164.063,437.0192 -36.242,112.0438 z" style="fill:#000000;fill-opacity:0.39759037;stroke:none"></path><path style="fill:#000000;fill-opacity:0.39759037;stroke:none" d="m 8507.5232,3948.042 1544.5008,-1039.9369 -1466.9807,1065.646 384.5826,1182.4232 -110.1791,41.5675 z" id="path7713" inkscape:connector-curvature="0" sodipodi:nodetypes="cccccc" inkscape:transform-center-x="772.2264" inkscape:transform-center-y="1144.8683"></path><path inkscape:transform-center-y="0.79370365" inkscape:transform-center-x="1266.5495" sodipodi:nodetypes="cccccc" inkscape:connector-curvature="0" id="path7715" d="M 8275.2451,2351.1682 10051.976,2908.1051 8303.5733,2427.77 7620.1941,3466.5295 7518.9249,3406.431 Z" style="fill:#000000;fill-opacity:0.39759037;stroke:none"></path></g></svg> 